<?xml version="1.0" encoding="utf-8"?>
<!-- Generator: Adobe Illustrator 26.3.1, SVG Export Plug-In . SVG Version: 6.00 Build 0)  -->
<svg version="1.1" id="Logo" xmlns="http://www.w3.org/2000/svg" xmlns:xlink="http://www.w3.org/1999/xlink" x="0px" y="0px"
	 viewBox="0 0 295.2 71.8" style="enable-background:new 0 0 295.2 71.8;" xml:space="preserve">
<style type="text/css">
	.st0{fill:#ffffff;}
</style>
<g>
	<g>
		<path class="st0" d="M281.9,59.1H280v-0.6h4.5v0.6h-1.9v5.7h-0.8L281.9,59.1L281.9,59.1z"/>
		<path class="st0" d="M288.5,64L288.5,64l1.8-5.6h1.3v6.3h-0.7V59l0,0l-1.9,5.7h-1l-1.8-5.7l0,0v5.7h-0.7v-6.3h1.3L288.5,64z"/>
	</g>
	<g>
		<path class="st0" d="M123.5,64.7c8.4,0,15.2-6.8,15.2-15.2V23.3c0-5.1,4.1-9.2,9.2-9.2h29.6c0.2,0,0.4-0.2,0.4-0.4V8.4
			c0-0.2-0.2-0.4-0.4-0.4h-35.6c-8.4,0-15.2,6.8-15.2,15.2v26.2c0,5.1-4.1,9.2-9.2,9.2H88.3c-0.2,0-0.4,0.2-0.4,0.4v5.2
			c0,0.2,0.2,0.4,0.4,0.4L123.5,64.7L123.5,64.7z"/>
		<path class="st0" d="M190.2,29.3V8.4c0-0.2,0.2-0.4,0.4-0.4h80.5c0.2,0,0.4,0.2,0.4,0.4v5.2c0,0.2-0.2,0.4-0.4,0.4h-68.4
			c-0.2,0-0.4,0.2-0.4,0.4V28c0,2.4,2,4.4,4.4,4.4h50.9c8.9,0,16.1,7.2,16.1,16.1s-7.2,16.1-16.1,16.1h-67c-0.2,0-0.4-0.2-0.4-0.4
			V59c0-0.2,0.2-0.4,0.4-0.4h60.9c5.6,0,10.1-4.5,10.1-10c0-5.6-4.6-10.1-10.2-10.1h-52.1C194.3,38.5,190.2,34.4,190.2,29.3z"/>
		<path class="st0" d="M70.6,32.5c5.1,0,9.2-4.1,9.2-9.2s-4.1-9.2-9.2-9.2H8.8c-0.2,0-0.4-0.2-0.4-0.4V8.4C8.4,8.2,8.6,8,8.8,8h67.8
			c8.4,0,15.2,6.8,15.2,15.2S85,38.4,76.6,38.4H29.7c-5.1,0-9.2,4.1-9.2,9.2v16.6c0,0.2-0.2,0.4-0.4,0.4H8.8c-0.2,0-0.4-0.2-0.4-0.4
			c0-4.5,0-16.6,0-16.6c0-8.4,6.8-15.2,15.2-15.2L70.6,32.5L70.6,32.5z"/>
	</g>
</g>
</svg>
