<?xml version="1.0" encoding="utf-8"?>
<!-- Generator: Adobe Illustrator 26.3.1, SVG Export Plug-In . SVG Version: 6.00 Build 0)  -->
<svg version="1.1" id="ps_x5F_family" xmlns="http://www.w3.org/2000/svg" xmlns:xlink="http://www.w3.org/1999/xlink" x="0px"
	 y="0px" viewBox="0 0 120 98" style="enable-background:new 0 0 120 98;" xml:space="preserve">
<style type="text/css">
	.st0{fill:#ffffff;}
</style>
<g>
	<g>
		<g>
			<g>
				<g>
					<path class="st0" d="M45.2,8v77.8l17.6,5.6V26.1c0-3.1,1.4-5.1,3.6-4.4l0,0c2.9,0.8,3.4,3.6,3.4,6.7v26c11,5.3,19.6,0,19.6-14
						c0-14.3-5-20.7-19.9-25.8C63.6,12.7,52.7,9.4,45.2,8z"/>
				</g>
				<path class="st0" d="M66.2,80l28.3-10.1c3.2-1.2,3.7-2.8,1.1-3.6c-2.6-0.9-7.3-0.6-10.5,0.5l-18.9,6.6V62.9l1.1-0.4
					c0,0,5.4-1.9,13.1-2.8c7.7-0.8,17,0.1,24.4,2.9c8.3,2.6,9.2,6.5,7.1,9.1c-2.1,2.7-7.3,4.6-7.3,4.6L66.2,90.1V80z"/>
				<path class="st0" d="M13,78.9C4.4,76.5,3,71.5,6.9,68.6c3.6-2.7,9.7-4.7,9.7-4.7l25.2-9v10.2l-18.1,6.5
					c-3.2,1.2-3.7,2.8-1.1,3.6c2.6,0.9,7.3,0.6,10.5-0.5l8.7-3.2v9.1c-0.6,0.1-1.2,0.2-1.7,0.3C31.4,82.5,22.1,81.9,13,78.9"/>
			</g>
		</g>
	</g>
	<g>
		<path class="st0" d="M106.3,91.2c1.1,0,2.1-0.4,2.9-1.2c0.8-0.8,1.2-1.8,1.2-2.9c0-1.1-0.4-2.1-1.2-2.9c-0.8-0.8-1.8-1.2-2.9-1.2
			c-2.3,0-4.1,1.9-4.1,4.1c0,1.1,0.4,2.1,1.2,2.9C104.2,90.8,105.2,91.2,106.3,91.2z M102.9,87.1c0-0.9,0.4-1.8,1-2.4
			c0.6-0.7,1.5-1,2.4-1c0.9,0,1.8,0.4,2.4,1c0.6,0.6,1,1.5,1,2.4c0,1.9-1.5,3.4-3.4,3.4c-0.9,0-1.8-0.4-2.4-1
			C103.2,88.8,102.9,88,102.9,87.1z"/>
		<path class="st0" d="M108.3,89c-0.1,0-0.1-0.1-0.1-0.2c0-0.1,0-0.2,0-0.4l0-0.6c0-0.3-0.1-0.5-0.2-0.6c-0.1-0.1-0.2-0.2-0.3-0.2
			c0.1-0.1,0.3-0.2,0.3-0.3c0.1-0.2,0.2-0.4,0.2-0.7c0-0.5-0.2-0.9-0.7-1.1c-0.2-0.1-0.5-0.2-0.9-0.2h-2h-0.1v0.1v4.4v0.1h0.1h0.6
			h0.1v-0.1v-1.8h1.2c0.2,0,0.4,0,0.5,0.1c0.2,0.1,0.2,0.2,0.3,0.5l0,0.7c0,0.2,0,0.3,0,0.4c0,0.1,0,0.1,0.1,0.2l0,0.1h0.1h0.7h0.1
			v-0.1L108.3,89L108.3,89L108.3,89z M107.4,86c0,0.3-0.1,0.4-0.2,0.5c-0.1,0.1-0.3,0.1-0.6,0.1h-1.3v-1.3h1.3c0.2,0,0.3,0,0.4,0.1
			C107.3,85.6,107.4,85.8,107.4,86z"/>
	</g>
</g>
</svg>
