<?xml version="1.0" encoding="UTF-8"?>
<svg id="_レイヤー_1" data-name="レイヤー_1" xmlns="http://www.w3.org/2000/svg" version="1.1" viewBox="0 0 499.8 108.2">
  <!-- Generator: Adobe Illustrator 29.3.1, SVG Export Plug-In . SVG Version: 2.1.0 Build 151)  -->
  <defs>
    <style>
      .st0 {
        fill: #faad42;
      }

      .st1 {
        fill: #b34f2e;
      }

      .st2 {
        fill: #d86a2e;
      }

      .st3 {
        fill: #fcb640;
      }

      .st4 {
        fill: #fff;
      }

      .st5 {
        fill: #e19743;
      }

      .st6 {
        fill: #d86f27;
      }

      .st7 {
        fill: #d54c27;
      }

      .st8 {
        fill: #f26b42;
      }

      .st9 {
        fill: #f5861e;
      }

      .st10 {
        fill: #b3542a;
      }

      .st11 {
        fill: #c57628;
      }

      .st12 {
        fill: #f69030;
      }

      .st13 {
        fill: #f07a21;
      }

      .st14 {
        fill: #f89e38;
      }
    </style>
  </defs>
  <g>
    <path class="st9" d="M429.1,75c4,0,7.3-3.4,7.3-7.5V28.4c0-4.1-3.3-7.5-7.3-7.5s-7.3,3.4-7.3,7.5v39.1c0,4.1,3.3,7.5,7.3,7.5Z"/>
    <path class="st8" d="M492.5,29.3c4,0,7.3-3.4,7.3-7.5V7.5c0-4.1-3.3-7.5-7.3-7.5s-7.3,3.4-7.3,7.5v14.2c0,4.1,3.3,7.5,7.3,7.5Z"/>
    <path class="st12" d="M492.5,0c4,0,7.3,3.4,7.3,7.5v5.1c0,4.1-3.3,7.5-7.3,7.5s-7.3-3.4-7.3-7.5v-5.1c0-4.1,3.3-7.5,7.3-7.5Z"/>
    <path class="st5" d="M407.9,89.8c4,0,7.3-3.4,7.3-7.5v-29.2c0-4.1-3.3-7.5-7.3-7.5s-7.3,3.4-7.3,7.5v29.2c0,4.1,3.3,7.5,7.3,7.5Z"/>
    <path class="st7" d="M415.3,53c0,4.1-3.3,7.4-7.3,7.4s-7.3-3.3-7.3-7.4c0-4.1,3.3-7.4,7.3-7.4s7.3,3.3,7.3,7.4Z"/>
    <path class="st10" d="M386.8,34.2c4,0,7.3,3.4,7.3,7.5v11.4c0,4.1-3.3,7.5-7.3,7.5s-7.3-3.3-7.3-7.5v-11.4c0-4.1,3.3-7.5,7.3-7.5Z"/>
    <path class="st9" d="M394.1,41.6c0,4.1-3.3,7.4-7.3,7.4s-7.3-3.3-7.3-7.4c0-4.1,3.3-7.4,7.3-7.4s7.3,3.3,7.3,7.4Z"/>
    <path class="st14" d="M471.3,51c4.1,0,7.3-3.4,7.3-7.5V15c0-4.1-3.3-7.5-7.3-7.5s-7.3,3.4-7.3,7.5v28.5c0,4.1,3.3,7.5,7.3,7.5Z"/>
    <path class="st2" d="M471.3,17.7c4.1,0,7.3,3.4,7.3,7.5v18.3c0,4.1-3.3,7.5-7.3,7.5s-7.3-3.4-7.3-7.5v-18.3c0-4.1,3.3-7.5,7.3-7.5Z"/>
    <path class="st6" d="M464,64.1c0-4.1,3.3-7.5,7.3-7.5s7.3,3.4,7.3,7.5v7.1h0v7.3c0,4.1-3.3,7.5-7.3,7.5s-7.3-3.4-7.3-7.5v-7.1h0v-7.3Z"/>
    <path class="st12" d="M471.3,56.6c4.1,0,7.3,3.4,7.3,7.5v3.4c0,4.1-3.3,7.5-7.3,7.5s-7.3-3.4-7.3-7.5v-3.4c0-4.1,3.3-7.5,7.3-7.5Z"/>
    <path class="st11" d="M450.2,34.1c4,0,7.3,3.4,7.3,7.5v59c0,4.1-3.3,7.5-7.3,7.5s-7.3-3.4-7.3-7.5v-59c0-4.1,3.3-7.5,7.3-7.5Z"/>
    <path class="st1" d="M450.2,45.2c4,0,7.3,3.4,7.3,7.5v47.9c0,4.1-3.3,7.5-7.3,7.5s-7.3-3.4-7.3-7.5v-47.9c0-4.1,3.3-7.5,7.3-7.5Z"/>
    <path class="st0" d="M450.2,61.5c4,0,7.3,3.4,7.3,7.5v31.6c0,4.1-3.3,7.5-7.3,7.5s-7.3-3.4-7.3-7.5v-31.6c0-4.1,3.3-7.5,7.3-7.5Z"/>
    <path class="st3" d="M429.1,20.9c-4.1,0-7.3,3.4-7.3,7.5v8.8c0,5,3.3,9.1,7.3,9.1s7.3-4.1,7.3-9.1v-8.8c0-4.1-3.3-7.5-7.3-7.5Z"/>
  </g>
  <g>
    <polygon class="st4" points="31.6 64.1 7.7 28.2 0 28.2 0 77.2 7.5 77.2 7.5 41.1 31.6 77.2 39.1 77.2 39.1 28.2 31.6 28.2 31.6 64.1"/>
    <path class="st4" d="M172.7,54.3c-.9-1.3-2.1-2.4-3.7-3.3-.1,0-.2-.1-.3-.2.8-.8,1.5-1.6,2-2.5.7-1.2,1.1-2.4,1.4-3.7.2-1.2.3-2.4.3-3.6,0-4.4-1.5-7.8-4.5-9.9-1.4-1-3.1-1.8-5.1-2.2-1.9-.5-4.1-.7-6.5-.7h-18.3v49h18.4c2.8,0,5.4-.3,7.5-.9,2.3-.6,4.2-1.6,5.8-2.8,3.3-2.6,4.9-6.3,4.9-11s-.1-2.7-.4-4c-.3-1.5-.9-2.9-1.7-4.2ZM163.2,46.3c-1.5,1-4.1,1.6-7.6,1.6h-9.9v-12.2h10.6c3.3,0,5.7.5,7.1,1.5,1.2.9,1.8,2.4,1.8,4.4s-.6,3.9-1.9,4.7ZM145.6,55.3h10c2.5,0,4.5.2,6.1.5h0c1.4.3,2.6.7,3.4,1.3h0c.7.5,1.2,1.1,1.5,1.9.3.9.5,2.1.5,3.4,0,2.4-.8,4.1-2.3,5.3-1.7,1.3-4.5,1.9-8.3,1.9h-10.9v-14.4Z"/>
    <path class="st4" d="M193.7,28.2l-.5,1.3c-.6,1.6-1.2,3.1-1.8,4.6v.2c-.9,2.1-1.7,4.4-2.6,6.5-.4,1-.7,1.9-1.1,2.9-1,2.7-2.1,5.5-3.2,8.2l-.4.9c-1.3,3.3-2.6,6.7-3.9,10.1l-.8,2c-1.1,2.9-2.4,6.2-3.6,9.4l-1.1,2.8h8l.5-1.4c1-2.8,1.8-5,2.7-7.2h0c.8-2.1,1.4-4,2.1-5.8h19.1l5.5,14.4h8.5l-20-49h-7.5ZM204.5,56h-14l6.8-17.2,7.2,17.2Z"/>
    <path class="st4" d="M257.4,59.8l-.2-.5c-.4-.9-.8-1.8-1.2-2.5h0c-.4-.7-.9-1.3-1.3-1.9.4-.2.8-.4,1.2-.7,1.4-.9,2.5-1.9,3.4-3.2.9-1.2,1.6-2.6,2-4.1.4-1.5.6-3.1.6-4.8,0-2.7-.5-5-1.5-6.9-1-1.9-2.3-3.3-4-4.4h0c-1.6-1-3.4-1.7-5.4-2.1-1.9-.4-3.9-.5-5.9-.5h-22.3v49h7.5v-20.2h13.6c.9,0,1.7.2,2.3.5.7.3,1.3.8,1.8,1.3h0c.6.6,1.1,1.3,1.5,2.1h0c.5.9.9,1.9,1.3,3l5,13.3h8.1l-5.7-15c-.3-.9-.6-1.7-.9-2.4ZM230.4,35.7h14.4c3.4,0,6,.5,7.5,1.6h0c1.3.9,2,2.5,2,4.9s-.2,2.7-.6,3.6h0c-.3.9-.9,1.5-1.6,2-.8.6-1.8,1-3.1,1.3h0c-1.4.3-3.2.5-5.3.5h-13.4v-13.8Z"/>
    <path class="st4" d="M302.8,34.3c-2.1-2-4.8-3.6-7.9-4.6-3-1-6.6-1.5-10.5-1.5h-15.7v48.9h15.7c4,0,7.5-.5,10.6-1.5,3.1-1,5.8-2.7,7.9-4.8,2.1-2.1,3.7-4.8,4.7-7.9,1-3,1.5-6.6,1.5-10.6s-.5-7.4-1.5-10.4c-1-3.1-2.6-5.6-4.8-7.7ZM276.3,35.7h8.1c3.5,0,6.4.4,8.7,1.2,2.1.7,3.8,1.8,5,3.1h0c1.2,1.4,2.1,3,2.6,5h0c.5,2.1.8,4.6.8,7.4s-.3,5.5-.8,7.7c-.5,2.1-1.4,3.8-2.7,5.2h0c-1.2,1.4-2.9,2.5-5,3.2-2.2.8-5.1,1.2-8.6,1.2h-8.1v-34Z"/>
    <path class="st4" d="M350.5,57.7h0c-.6-1.5-1.5-2.7-2.6-3.8-1-1-2.3-1.9-3.7-2.6-1.3-.7-2.7-1.2-4.1-1.6-1.3-.4-2.7-.8-4.2-1.1h0c-1.2-.3-2.6-.5-4.1-.9-2.1-.4-3.9-.9-5.3-1.4-1.3-.5-2.3-1-3-1.5-.6-.5-1.1-1-1.3-1.5-.3-.6-.4-1.3-.4-2.2,0-1.9.7-3.3,2.2-4.4,1.7-1.2,4.3-1.8,7.9-1.8s3.2.2,4.5.6c1.3.4,2.3.8,3.2,1.5.8.6,1.5,1.3,2.1,2.1.6.8.9,1.7,1.2,2.7l.4,1.6h7.2l-.3-2.4c-.3-2.1-.9-4.1-2-5.7-1-1.7-2.4-3.1-4-4.3-1.6-1.1-3.5-2-5.7-2.6h0c-2.1-.6-4.4-.9-6.8-.9s-4.8.3-6.9,1c-2.1.6-4,1.6-5.5,2.8-1.6,1.2-2.9,2.7-3.7,4.4-.9,1.7-1.3,3.7-1.3,5.7s.3,3.6,1,5.1h0c.7,1.5,1.7,2.9,3.1,4,1.3,1.1,2.9,2,4.9,2.8,1.8.7,4.1,1.4,6.6,2h0c2.9.6,5.3,1.2,7.3,1.8,1.8.5,3.3,1.2,4.3,1.8.9.6,1.5,1.2,1.9,1.8h0c.4.7.5,1.7.5,2.8s-.2,2-.7,2.8c-.5.9-1.1,1.6-2,2.2-.9.7-2.1,1.2-3.4,1.5-1.4.4-3,.6-4.8.6s-3.5-.2-5-.4c-1.5-.3-2.8-.8-3.8-1.4h0c-1.1-.6-1.9-1.5-2.7-2.6-.7-1.1-1.2-2.5-1.5-4.2l-.3-1.8h-7.3l.2,2.2c.2,2.4.7,4.5,1.6,6.4,1,2,2.3,3.7,4.1,5,1.7,1.3,3.9,2.4,6.4,3.1,2.5.7,5.3,1,8.5,1s4.9-.4,7.1-1.1c2.2-.7,4.1-1.7,5.8-3.1,1.7-1.3,3-3,3.9-4.8,1-1.9,1.4-4,1.4-6.2s-.3-3.7-1-5.1Z"/>
    <g>
      <rect class="st13" x="43.7" y="27.9" width="35.5" height="7.5"/>
      <rect class="st13" x="43.7" y="48.8" width="35.5" height="7.5"/>
      <rect class="st13" x="43.7" y="69.7" width="35.5" height="7.5"/>
    </g>
    <path class="st4" d="M134.7,42.9c-1.2-3.1-3-6-5.4-8.4-2.4-2.5-5.3-4.5-8.6-5.9-3.4-1.5-7.1-2.2-10.9-2.2s-1.1,0-1.7,0c-3.5.2-6.8,1.1-9.9,2.6-3,1.5-5.7,3.5-7.9,6.1-4.6,5.2-7,11.9-6.7,19,.3,6.9,3.2,13.3,8.1,17.9,4.9,4.6,11.5,7.1,18.5,7.1h0c.4,0,.9,0,1.3,0,7-.3,13.4-3.4,18.1-8.7,4.4-5,6.8-11.3,6.6-17.5.1-3.4-.4-6.7-1.7-9.8ZM110.1,34c10.3,0,18.6,8.4,18.6,18.7s-8.4,18.7-18.6,18.7-18.7-8.4-18.7-18.7,8.4-18.7,18.7-18.7Z"/>
    <g>
      <path class="st4" d="M7.8,99.4H2.1v-10.8h5.5v1.1H3.4v3.6h3.9v1.1h-3.9v3.8h4.5v1.1Z"/>
      <path class="st4" d="M37.3,99.4h-1.6l-5.5-8.6c-.1-.2-.3-.4-.3-.7h0c0,.2,0,.7,0,1.5v7.8h-1.3v-10.8h1.6l5.4,8.5c.2.3.4.6.4.7h0c0-.3,0-.8,0-1.6v-7.6h1.3v10.8Z"/>
      <path class="st4" d="M65.6,89.8h-3.1v9.6h-1.3v-9.6h-3.1v-1.1h7.5v1.1Z"/>
      <path class="st4" d="M92.2,99.4h-5.7v-10.8h5.5v1.1h-4.2v3.6h3.9v1.1h-3.9v3.8h4.4v1.1Z"/>
      <path class="st4" d="M120.7,99.4h-1.5l-1.8-3c-.2-.3-.3-.5-.5-.7-.2-.2-.3-.4-.5-.5-.2-.1-.3-.2-.5-.3-.2,0-.4,0-.6,0h-1v4.6h-1.3v-10.8h3.2c.5,0,.9,0,1.3.2.4.1.7.3,1,.5.3.2.5.5.7.9.2.4.2.8.2,1.3s0,.7-.2,1c0,.3-.3.6-.5.8-.2.2-.5.5-.8.6-.3.2-.6.3-1,.4h0c.2.1.3.2.5.3.1,0,.3.2.4.4.1.1.2.3.4.5.1.2.2.4.4.6l2,3.2ZM114.3,89.8v3.9h1.7c.3,0,.6,0,.9-.1.3,0,.5-.2.7-.4.2-.2.3-.4.5-.7.1-.3.2-.5.2-.9,0-.6-.2-1-.5-1.3-.4-.3-.9-.5-1.6-.5h-1.7Z"/>
      <path class="st4" d="M149,89.8h-3.1v9.6h-1.3v-9.6h-3.1v-1.1h7.5v1.1Z"/>
      <path class="st4" d="M179.5,99.4h-1.4l-1.1-3h-4.6l-1.1,3h-1.4l4.1-10.8h1.3l4.2,10.8ZM176.5,95.3l-1.7-4.6c0-.2-.1-.4-.2-.7h0c0,.3-.1.5-.2.7l-1.7,4.6h3.7Z"/>
      <path class="st4" d="M203.7,88.6v1.1h-1v8.6h1v1.1h-3.4v-1.1h1v-8.6h-1v-1.1h3.4Z"/>
      <path class="st4" d="M233.2,99.4h-1.5l-5.5-8.6c-.1-.2-.3-.4-.4-.7h0c0,.2,0,.7,0,1.5v7.8h-1.3v-10.8h1.7l5.4,8.5c.2.3.4.6.4.7h0c0-.3,0-.8,0-1.6v-7.6h1.3v10.8Z"/>
      <path class="st4" d="M265,99.4h-1.3v-7.2c0-.6,0-1.3,0-2.1h0c-.1.5-.2.8-.3,1l-3.7,8.3h-.6l-3.7-8.2c0-.2-.2-.6-.3-1.1h0c0,.4,0,1.1,0,2.1v7.2h-1.2v-10.8h1.7l3.3,7.5c.3.6.4,1,.5,1.3h0c.2-.6.4-1,.5-1.3l3.4-7.5h1.6v10.8Z"/>
      <path class="st4" d="M291.5,99.4h-5.7v-10.8h5.5v1.1h-4.2v3.6h3.9v1.1h-3.9v3.8h4.5v1.1Z"/>
      <path class="st4" d="M321,99.4h-1.5l-5.6-8.6c-.1-.2-.2-.4-.3-.7h0c0,.2,0,.7,0,1.5v7.8h-1.3v-10.8h1.6l5.4,8.5c.2.3.4.6.4.7h0c0-.3,0-.8,0-1.6v-7.6h1.3v10.8Z"/>
      <path class="st4" d="M349.4,89.8h-3.1v9.6h-1.3v-9.6h-3.1v-1.1h7.5v1.1Z"/>
    </g>
  </g>
</svg>