<?xml version="1.0" encoding="UTF-8"?>
<svg id="_レイヤー_1" data-name="レイヤー_1" xmlns="http://www.w3.org/2000/svg" version="1.1" viewBox="0 0 97.1 46.3">
  <!-- Generator: Adobe Illustrator 29.3.1, SVG Export Plug-In . SVG Version: 2.1.0 Build 151)  -->
  <defs>
    <style>
      .st0 {
        fill: #231815;
      }

      .st1 {
        fill: #fff;
      }
    </style>
  </defs>
  <g>
    <polygon class="st1" points="97 0 96.4 0 .6 0 0 0 0 .5 0 45.8 0 46.3 .6 46.3 97.1 46.3 97.1 0 97 0"/>
    <g>
      <path class="st0" d="M96.4.5v45.3H.6V.5h95.9"/>
      <rect class="st1" x="2" y="2.1" width="26.8" height="7.5"/>
      <rect class="st1" x="1.9" y="11.3" width="26.8" height="27.6"/>
      <g>
        <polygon class="st1" points="2 44.2 2 40.5 7.3 40.5 7.3 41.4 4.1 41.4 4.1 41.9 6.8 41.9 6.8 42.8 4.1 42.8 4.1 43.3 7.4 43.3 7.4 44.2 2 44.2"/>
        <path class="st1" d="M12,41.6c0-.1-.2-.2-.3-.2-.2,0-.3,0-.6,0-.5,0-.7,0-.7.2,0,.5,3.8.2,3.8,1.5s-1.3,1.3-3.1,1.3-2.9-.6-2.9-1.2h2.1c0,.1.2.2.4.3.2,0,.4,0,.6,0,.5,0,.9,0,.9-.3,0-.6-3.8-.2-3.8-1.6s1.2-1.2,2.9-1.2,2.7.5,2.8,1.2h-2.1Z"/>
        <path class="st1" d="M17.5,42.1h.8c.7,0,1,0,1-.4s-.4-.4-.9-.4h-1v.7ZM17.5,42.9v1.3h-2.2v-3.7h3.1c2.2,0,2.9.3,2.9,1s-.3.8-1.1.9c.7.1,1.1.2,1.1,1s0,.6.2.6h0c0,.1-2.2.1-2.2.1,0,0-.1-.3-.1-.6,0-.5-.1-.6-1.2-.6h-.7Z"/>
        <path class="st1" d="M24.8,41.4v.6h.9c.4,0,.7-.1.7-.3s-.4-.3-.9-.3h-.8ZM24.8,42.7v.7h.9c.5,0,.9,0,.9-.3s-.5-.3-1.2-.3h-.7ZM22.7,44.2v-3.7h3.1c1.5,0,2.7.2,2.7.9s-.4.7-.9.8c.7.1,1.1.4,1.1.8,0,.8-1.1,1.1-2.8,1.1h-3.2Z"/>
      </g>
      <rect class="st1" x="30.3" y="2.1" width="64.5" height="42.1"/>
      <polygon class="st0" points="2.9 18.1 11.1 15.9 15.8 26.9 15.8 26.9 14.4 15 22.6 12.8 27.8 32.1 22.8 33.4 19.1 19.6 19.1 19.6 20.6 34 15.2 35.4 9.4 22.2 9.4 22.3 13 36 8 37.4 2.9 18.1"/>
      <g>
        <path class="st0" d="M2.7,8V3.7h1.2l.6,2.9h0l.6-2.9h1.2v4.3h-.7v-3.3h0l-.7,3.3h-.7l-.7-3.3h0v3.3h-.7Z"/>
        <path class="st0" d="M6.6,8l1-4.3h1l1,4.3h-.8l-.2-.9h-1l-.2.9h-.7ZM8,4.6h0l-.3,1.8h.7l-.4-1.8Z"/>
        <path class="st0" d="M11.7,3.7v.7h-.8v3.5h-.8v-3.5h-.8v-.7h2.4Z"/>
        <path class="st0" d="M14.5,3.7v3c0,.2,0,.3,0,.5,0,.2-.1.3-.2.4,0,.1-.2.2-.4.3-.2,0-.3.1-.6.1-.4,0-.7-.1-.9-.4-.2-.2-.3-.6-.3-1v-3h.8v3c0,.3,0,.5.1.6,0,.1.2.2.3.2s.3,0,.4-.2c0-.1.1-.3.1-.5v-3h.8Z"/>
        <path class="st0" d="M15.8,8h-.8V3.7h1.4c.3,0,.5,0,.6.3.1.2.2.5.2.8s0,.5-.2.7c-.1.2-.3.3-.5.4h0s0,0,.2,0c0,0,.1,0,.2.1,0,0,.1.1.2.2,0,.1,0,.3,0,.5s0,.2,0,.3c0,.1,0,.2,0,.4,0,.1,0,.2,0,.4,0,.1,0,.2,0,.2h-.7c0-.1,0-.3,0-.4,0-.1,0-.3,0-.4s0-.2,0-.4c0-.1,0-.2,0-.3,0,0,0-.2-.2-.2,0,0-.2,0-.3,0h-.2v1.8ZM15.8,5.6h.3c0,0,.1,0,.2,0,0,0,0,0,.1-.2,0,0,0-.1,0-.2,0,0,0-.1,0-.2,0-.2,0-.3-.1-.4,0,0-.2-.1-.3-.1h-.3v1.2Z"/>
        <path class="st0" d="M17.9,8V3.7h2v.7h-1.2v1.1h1.1v.7h-1.1v1.2h1.2v.7h-2Z"/>
        <path class="st0" d="M21.4,4.4c.1,0,.2-.2.4-.3.1-.1.2-.2.3-.4h.7v4.3h-.8v-3.3c0,0-.2.2-.3.3,0,0-.2.2-.3.2v-.8Z"/>
        <path class="st0" d="M25.4,4.5l-.8,3.5h-.8l1-3.6h-1.2v-.7h1.9v.8Z"/>
        <path class="st0" d="M26.5,4.6h.6v1.2h.8v.7h-.8v1.2h-.6v-1.2h-.8v-.7h.8v-1.2Z"/>
      </g>
    </g>
  </g>
  <g>
    <path d="M42.2,14.1v-5h.5v5h-.5Z"/>
    <path d="M43.6,14.1v-3.6h.5v.5c.1-.2.2-.3.4-.4s.3-.1.5-.1.3,0,.4,0c.1,0,.2.1.3.2,0,.1.1.2.2.4,0,.2,0,.4,0,.7v2.2h-.5v-2.2c0-.3,0-.5,0-.6s-.1-.2-.2-.3c0,0-.2-.1-.3-.1-.2,0-.4,0-.6.3s-.2.5-.2.9v2h-.5Z"/>
    <path d="M47.9,13.5v.5c0,0-.2,0-.3,0-.2,0-.3,0-.4-.1-.1,0-.2-.2-.2-.3s0-.4,0-.7v-2.1h-.4v-.5h.4v-.9l.5-.4v1.3h.5v.5h-.5v2.1c0,.2,0,.3,0,.4,0,0,.1.1.2.1s.1,0,.2,0Z"/>
    <path d="M50.4,12.9h.5c0,.5-.2.8-.5,1-.2.2-.5.3-.8.3s-.8-.2-1-.5c-.3-.3-.4-.8-.4-1.4s.1-1.1.4-1.4c.3-.3.6-.5,1-.5s.7.2,1,.5.4.8.4,1.4v.2h-2.2c0,.4.1.7.3.9.2.2.4.3.6.3.4,0,.6-.2.8-.7ZM48.8,11.9h1.7c0-.3,0-.5-.2-.7-.2-.2-.4-.3-.6-.3s-.4,0-.6.3c-.2.2-.2.4-.3.8Z"/>
    <path d="M51.6,14.1v-3.6h.5v.5c.1-.2.2-.3.4-.4.2,0,.3-.1.5-.1s.3,0,.4,0c.1,0,.2.1.3.2,0,.1.1.2.2.4s0,.4,0,.7v2.2h-.5v-2.2c0-.3,0-.5,0-.6,0-.1-.1-.2-.2-.3s-.2-.1-.3-.1c-.2,0-.4,0-.6.3-.1.2-.2.5-.2.9v2h-.5Z"/>
    <path d="M54.6,13h.5c0,.2.1.4.2.5.1.1.3.2.5.2s.4,0,.5-.2c.1-.1.2-.2.2-.4s0-.3-.2-.3c0,0-.2-.1-.5-.2-.4-.1-.7-.2-.8-.3-.1,0-.2-.2-.3-.3,0-.1-.1-.3-.1-.5,0-.3,0-.6.3-.8s.5-.3.8-.3.4,0,.6.1c.2,0,.3.2.4.3s.2.3.2.6h-.5c0-.3-.3-.5-.6-.5s-.4,0-.5.1-.2.2-.2.3,0,.2.2.3c0,0,.2.1.5.2.4.1.7.2.8.3.1,0,.2.2.3.3s.1.3.1.5c0,.3-.1.6-.3.8-.2.2-.5.3-.9.3-.7,0-1.1-.4-1.2-1.2Z"/>
    <path d="M59.7,12.9h.5c0,.5-.2.8-.5,1-.2.2-.5.3-.8.3s-.8-.2-1-.5c-.3-.3-.4-.8-.4-1.4s.1-1.1.4-1.4c.3-.3.6-.5,1-.5s.7.2,1,.5.4.8.4,1.4v.2h-2.2c0,.4.1.7.3.9.2.2.4.3.6.3.4,0,.6-.2.8-.7ZM58,11.9h1.7c0-.3,0-.5-.2-.7-.2-.2-.4-.3-.6-.3s-.4,0-.6.3c-.2.2-.2.4-.3.8Z"/>
    <path d="M63.7,14.1l-1.6-5h.6l1.1,3.6c0,.3.2.6.2.8,0-.3.1-.5.2-.8l1.1-3.6h.6l-1.6,5h-.6Z"/>
    <path d="M66.3,9.8v-.7h.5v.7h-.5ZM66.3,14.1v-3.6h.5v3.6h-.5Z"/>
    <path d="M67.3,12.3c0-.6.1-1.1.4-1.4.3-.3.6-.5,1-.5s.7.2,1,.5.4.8.4,1.4-.1,1.1-.4,1.5-.6.5-1,.5-.7-.2-1-.5c-.3-.3-.4-.8-.4-1.4ZM67.9,12.3c0,.5,0,.8.3,1,.2.2.4.3.6.3s.4-.1.6-.3c.2-.2.3-.6.3-1s0-.8-.3-1c-.2-.2-.4-.3-.6-.3s-.4.1-.6.3-.3.6-.3,1Z"/>
    <path d="M70.7,14.1v-5h.5v5h-.5Z"/>
    <path d="M74,12.9h.5c0,.5-.2.8-.5,1-.2.2-.5.3-.8.3s-.8-.2-1-.5c-.3-.3-.4-.8-.4-1.4s.1-1.1.4-1.4c.3-.3.6-.5,1-.5s.7.2,1,.5.4.8.4,1.4v.2h-2.2c0,.4.1.7.3.9.2.2.4.3.6.3.4,0,.6-.2.8-.7ZM72.4,11.9h1.7c0-.3,0-.5-.2-.7-.2-.2-.4-.3-.6-.3s-.4,0-.6.3c-.2.2-.2.4-.3.8Z"/>
    <path d="M75.2,14.1v-3.6h.5v.5c.1-.2.2-.3.4-.4.2,0,.3-.1.5-.1s.3,0,.4,0c.1,0,.2.1.3.2,0,.1.1.2.2.4s0,.4,0,.7v2.2h-.5v-2.2c0-.3,0-.5,0-.6,0-.1-.1-.2-.2-.3s-.2-.1-.3-.1c-.2,0-.4,0-.6.3-.1.2-.2.5-.2.9v2h-.5Z"/>
    <path d="M80.3,12.8h.5c0,.5-.2.8-.4,1.1-.2.2-.5.3-.8.3s-.7-.2-1-.5c-.3-.3-.4-.8-.4-1.4s.1-1.1.4-1.4c.3-.3.6-.5,1-.5s.6,0,.8.3.3.5.4.9h-.5c0-.2-.1-.3-.2-.5-.1-.1-.3-.2-.4-.2-.2,0-.5.1-.6.3-.2.2-.2.6-.2,1s0,.9.2,1.1.4.3.6.3.4,0,.5-.2c.1-.1.2-.4.3-.7Z"/>
    <path d="M83.3,12.9h.5c0,.5-.2.8-.5,1-.2.2-.5.3-.8.3s-.8-.2-1-.5c-.3-.3-.4-.8-.4-1.4s.1-1.1.4-1.4c.3-.3.6-.5,1-.5s.7.2,1,.5.4.8.4,1.4v.2h-2.2c0,.4.1.7.3.9.2.2.4.3.6.3.4,0,.6-.2.8-.7ZM81.6,11.9h1.7c0-.3,0-.5-.2-.7-.2-.2-.4-.3-.6-.3s-.4,0-.6.3c-.2.2-.2.4-.3.8Z"/>
    <path d="M42.1,25.1v-5h1.5c.3,0,.6,0,.7.1.2,0,.3.2.4.5.1.2.2.4.2.7s0,.4-.2.6c-.1.2-.2.3-.4.4.2,0,.4.2.6.4.1.2.2.5.2.8s0,.6-.2.8c-.1.2-.3.4-.5.5-.2.1-.5.2-.9.2h-1.6ZM42.6,22.2h.9c.2,0,.4,0,.5,0,.1,0,.3-.1.3-.2,0-.1.1-.3.1-.5s0-.3-.1-.4c0-.1-.2-.2-.3-.2s-.3,0-.6,0h-.8v1.5ZM42.6,24.5h1c.2,0,.4,0,.5,0,.2,0,.3-.2.4-.3s.1-.3.1-.5,0-.3-.1-.5c0-.1-.2-.2-.3-.3s-.3,0-.6,0h-1v1.7Z"/>
    <path d="M45.8,25.1v-5h.5v5h-.5Z"/>
    <path d="M46.9,23.3c0-.6.1-1.1.4-1.4.3-.3.6-.5,1-.5s.7.2,1,.5c.3.3.4.8.4,1.4s-.1,1.1-.4,1.5c-.3.3-.6.5-1,.5s-.7-.2-1-.5-.4-.8-.4-1.4ZM47.4,23.3c0,.5,0,.8.3,1,.2.2.4.3.6.3s.4-.1.6-.3.3-.6.3-1,0-.8-.3-1c-.2-.2-.4-.3-.6-.3s-.4.1-.6.3-.3.6-.3,1Z"/>
    <path d="M50.1,23.3c0-.6.1-1.1.4-1.4.3-.3.6-.5,1-.5s.7.2,1,.5c.3.3.4.8.4,1.4s-.1,1.1-.4,1.5c-.3.3-.6.5-1,.5s-.7-.2-1-.5-.4-.8-.4-1.4ZM50.6,23.3c0,.5,0,.8.3,1,.2.2.4.3.6.3s.4-.1.6-.3.3-.6.3-1,0-.8-.3-1c-.2-.2-.4-.3-.6-.3s-.4.1-.6.3-.3.6-.3,1Z"/>
    <path d="M55.4,25.1v-.5c0,.2-.2.3-.4.4-.1,0-.3.1-.5.1-.4,0-.7-.2-.9-.5-.3-.3-.4-.8-.4-1.4s0-.8.2-1c.1-.3.3-.5.5-.6.2-.1.4-.2.6-.2s.3,0,.5.1c.1,0,.3.2.4.4v-1.8h.5v5h-.5ZM53.8,23.3c0,.5,0,.8.2,1,.2.2.4.3.6.3s.4-.1.6-.3.2-.5.2-1,0-.9-.2-1.1c-.2-.2-.4-.4-.6-.4s-.4.1-.5.3c-.2.2-.2.6-.2,1.1Z"/>
    <path d="M60.2,24.6c-.2.2-.3.3-.5.4s-.4.1-.6.1c-.3,0-.6,0-.7-.3-.2-.2-.3-.4-.3-.8s0-.4.1-.6c0-.2.2-.3.4-.4.2,0,.4-.2.7-.2.4,0,.7-.1.9-.2v-.2c0-.2,0-.4-.1-.5-.1-.1-.3-.2-.6-.2s-.4,0-.5.1c-.1,0-.2.3-.3.5h-.5c0-.5.2-.8.4-.9.2-.2.5-.3.9-.3s.6,0,.7.2c.2.1.3.3.3.4s0,.4,0,.8v.8c0,.6,0,.9,0,1.1,0,.1,0,.3.1.4h-.5c0-.1,0-.3-.1-.4ZM60.2,23.3c-.2,0-.5.2-.8.2-.2,0-.4,0-.4.1,0,0-.2.1-.2.2,0,0,0,.2,0,.3,0,.2,0,.3.2.4s.3.2.4.2.3,0,.5-.1c.1,0,.3-.2.3-.4,0-.2.1-.4.1-.7v-.2Z"/>
    <path d="M61.5,25.1v-3.6h.5v.5c.1-.2.2-.3.4-.4.2,0,.3-.1.5-.1s.3,0,.4,0c.1,0,.2.1.3.2,0,.1.1.2.2.4,0,.2,0,.4,0,.7v2.2h-.5v-2.2c0-.3,0-.5,0-.6,0-.1-.1-.2-.2-.3s-.2-.1-.3-.1c-.2,0-.4,0-.6.3-.1.2-.2.5-.2.9v2h-.5Z"/>
    <path d="M66.6,25.1v-.5c0,.2-.2.3-.4.4-.1,0-.3.1-.5.1-.4,0-.7-.2-.9-.5-.3-.3-.4-.8-.4-1.4s0-.8.2-1c.1-.3.3-.5.5-.6.2-.1.4-.2.6-.2s.3,0,.5.1c.1,0,.3.2.4.4v-1.8h.5v5h-.5ZM65,23.3c0,.5,0,.8.2,1,.2.2.4.3.6.3s.4-.1.6-.3.2-.5.2-1,0-.9-.2-1.1c-.2-.2-.4-.4-.6-.4s-.4.1-.5.3c-.2.2-.2.6-.2,1.1Z"/>
    <path d="M71.5,23.1v-.6h1.7s0,1.9,0,1.9c-.3.3-.5.5-.8.6-.3.1-.6.2-.9.2s-.8,0-1.1-.3c-.3-.2-.6-.5-.7-.9s-.3-.8-.3-1.4,0-1,.3-1.4c.2-.4.4-.7.7-.9s.7-.3,1.1-.3.6,0,.8.2c.2.1.4.3.6.5s.3.5.3.8l-.5.2c0-.3-.1-.5-.2-.6-.1-.1-.2-.2-.4-.3s-.3-.1-.6-.1c-.3,0-.6,0-.8.2-.2.1-.4.4-.5.7-.1.3-.2.7-.2,1.1,0,.7.1,1.2.4,1.5.3.3.6.5,1.1.5s.4,0,.7-.2.4-.2.5-.4v-.9h-1.2Z"/>
    <path d="M73.7,23.3c0-.6.1-1.1.4-1.4.3-.3.6-.5,1-.5s.7.2,1,.5c.3.3.4.8.4,1.4s-.1,1.1-.4,1.5c-.3.3-.6.5-1,.5s-.7-.2-1-.5-.4-.8-.4-1.4ZM74.2,23.3c0,.5,0,.8.3,1,.2.2.4.3.6.3s.4-.1.6-.3.3-.6.3-1,0-.8-.3-1c-.2-.2-.4-.3-.6-.3s-.4.1-.6.3-.3.6-.3,1Z"/>
    <path d="M77.1,25.1v-3.6h.5v.6c.1-.3.2-.4.3-.5,0,0,.2-.1.3-.1s.3,0,.5.2l-.2.6c-.1,0-.2-.1-.4-.1s-.2,0-.3.1c0,0-.2.2-.2.3,0,.2,0,.5,0,.7v1.9h-.5Z"/>
    <path d="M81.1,23.9h.5c0,.5-.2.8-.5,1s-.5.3-.8.3-.8-.2-1-.5-.4-.8-.4-1.4.1-1.1.4-1.4c.3-.3.6-.5,1-.5s.7.2,1,.5c.3.3.4.8.4,1.4v.2h-2.2c0,.4.1.7.3.9.2.2.4.3.6.3.4,0,.6-.2.8-.7ZM79.4,22.9h1.7c0-.3,0-.5-.2-.7-.2-.2-.4-.3-.6-.3s-.4,0-.6.3c-.2.2-.2.4-.3.8Z"/>
    <path d="M42.1,36.1v-5h1.5c.4,0,.6,0,.8,0,.2,0,.4.2.6.5.1.2.2.5.2.9s-.1.8-.3,1.1c-.2.3-.6.4-1.2.4h-1.1v2h-.5ZM42.6,33.5h1.1c.3,0,.6,0,.7-.2.2-.2.2-.4.2-.7s0-.4-.1-.5c0-.1-.2-.2-.3-.3-.1,0-.3,0-.6,0h-1.1v1.8Z"/>
    <path d="M47.8,35.6c-.2.2-.3.3-.5.4s-.4.1-.6.1c-.3,0-.6,0-.7-.3-.2-.2-.3-.4-.3-.8s0-.4.1-.6c0-.2.2-.3.4-.4.2,0,.4-.2.7-.2.4,0,.7-.1.9-.2v-.2c0-.2,0-.4-.1-.5-.1-.1-.3-.2-.6-.2s-.4,0-.5.1c-.1,0-.2.3-.3.5h-.5c0-.5.2-.8.4-.9.2-.2.5-.3.9-.3s.6,0,.7.2.3.3.3.4c0,.2,0,.4,0,.8v.8c0,.6,0,.9,0,1.1,0,.1,0,.3.1.4h-.5c0-.1,0-.3-.1-.4ZM47.7,34.3c-.2,0-.5.2-.8.2-.2,0-.4,0-.4.1,0,0-.2.1-.2.2,0,0,0,.2,0,.3,0,.2,0,.3.2.4s.3.2.4.2.3,0,.5-.1c.1,0,.3-.2.3-.4,0-.2.1-.4.1-.7v-.2Z"/>
    <path d="M49,36.1v-3.6h.5v.5c.1-.3.2-.4.3-.5,0,0,.2-.1.3-.1s.3,0,.5.2l-.2.6c-.1,0-.2-.1-.4-.1s-.2,0-.3.1c0,0-.2.2-.2.3,0,.2,0,.5,0,.7v1.9h-.5Z"/>
    <path d="M52.1,35.5v.5c0,0-.2,0-.3,0-.2,0-.3,0-.4-.1-.1,0-.2-.2-.2-.3,0-.1,0-.4,0-.7v-2.1h-.4v-.5h.4v-.9l.5-.4v1.3h.5v.5h-.5v2.1c0,.2,0,.3,0,.4,0,0,.1.1.2.1s.1,0,.2,0Z"/>
    <path d="M52.5,31.8v-.7h.5v.7h-.5ZM52.5,36.1v-3.6h.5v3.6h-.5Z"/>
    <path d="M55.7,35.6c-.2.2-.3.3-.5.4s-.4.1-.6.1c-.3,0-.6,0-.7-.3-.2-.2-.3-.4-.3-.8s0-.4.1-.6c0-.2.2-.3.4-.4.2,0,.4-.2.7-.2.4,0,.7-.1.9-.2v-.2c0-.2,0-.4-.1-.5-.1-.1-.3-.2-.6-.2s-.4,0-.5.1c-.1,0-.2.3-.3.5h-.5c0-.5.2-.8.4-.9.2-.2.5-.3.9-.3s.6,0,.7.2.3.3.3.4c0,.2,0,.4,0,.8v.8c0,.6,0,.9,0,1.1,0,.1,0,.3.1.4h-.5c0-.1,0-.3-.1-.4ZM55.7,34.3c-.2,0-.5.2-.8.2-.2,0-.4,0-.4.1,0,0-.2.1-.2.2,0,0,0,.2,0,.3,0,.2,0,.3.2.4s.3.2.4.2.3,0,.5-.1c.1,0,.3-.2.3-.4,0-.2.1-.4.1-.7v-.2Z"/>
    <path d="M57,36.1v-5h.5v5h-.5Z"/>
    <path d="M59.9,36.1v-5h.6l2.2,3.9v-3.9h.5v5h-.6l-2.2-3.9v3.9h-.5Z"/>
    <path d="M66,36.1v-.5c-.1.2-.3.4-.4.5-.2.1-.3.2-.5.2s-.4,0-.6-.2c-.2-.1-.3-.3-.3-.5,0-.2,0-.5,0-.8v-2.2h.5v2c0,.4,0,.6,0,.8,0,.1.1.2.2.3s.2.1.3.1c.2,0,.4,0,.6-.3.1-.2.2-.5.2-.9v-1.9h.5v3.6h-.5Z"/>
    <path d="M69.1,36.1v-.5c0,.2-.2.3-.4.4-.1,0-.3.1-.5.1-.4,0-.7-.2-.9-.5-.3-.3-.4-.8-.4-1.4s0-.8.2-1c.1-.3.3-.5.5-.6.2-.1.4-.2.6-.2s.3,0,.5.1c.1,0,.3.2.4.4v-1.8h.5v5h-.5ZM67.5,34.3c0,.5,0,.8.2,1,.2.2.4.3.6.3s.4-.1.6-.3.2-.5.2-1,0-.9-.2-1.1c-.2-.2-.4-.4-.6-.4s-.4.1-.5.3c-.2.2-.2.6-.2,1.1Z"/>
    <path d="M70.4,31.8v-.7h.5v.7h-.5ZM70.4,36.1v-3.6h.5v3.6h-.5Z"/>
    <path d="M72.8,35.5v.5c0,0-.2,0-.3,0-.2,0-.3,0-.4-.1-.1,0-.2-.2-.2-.3,0-.1,0-.4,0-.7v-2.1h-.4v-.5h.4v-.9l.5-.4v1.3h.5v.5h-.5v2.1c0,.2,0,.3,0,.4,0,0,.1.1.2.1s.1,0,.2,0Z"/>
    <path d="M73.2,37.5v-.6c0,0,.2,0,.2,0s.2,0,.3,0c0,0,.1-.1.2-.2,0,0,0-.2.2-.6l-1.1-3.6h.5l.6,2.1c0,.3.1.5.2.8,0-.3.1-.6.2-.8l.6-2.1h.5l-1.1,3.7c-.1.5-.3.8-.4,1,0,.2-.2.3-.3.3-.1,0-.2.1-.4.1s-.2,0-.3,0Z"/>
  </g>
</svg>